PathFileType	4	(X/Y/Z)	C:\Users\Biomechanik\SynologyDrive\AlexP\Athlete_03\Athlete_3_25_03_31\Squat_bw_03\marker_experimental.trc
DataRate	CameraRate	NumFrames	NumMarkers	Units	OrigDataRate	OrigDataStartFrame	OrigNumFrames
200.000000	200.000000	4	55	mm	200.000000	68	544
Frame#	Time	BL			BR			GLAB			RFHD			LFHD			C7			T6			SPINMOL			SPINM2			SPINM3			T12			BELTOL			BELT2			BELT3			SACROL			SACR2			SACR3			LTHOL			LTH2			LTH3			LSHAOL			LSHA2			LSHA3			LHEE			LTOE			LM5			RTHOL			RTH2			RTH3			RSHAOL			RSHA2			RSHA3			RHEE			RTOE			RM5			STRN			XIPH			LACR			LUAOL			LUA2			LUA3			LLAOL			LLA2			LLA3			LWRR			LWRU			RACR			RUAOL			RUA2			RUA3			RLAOL			RLA2			RLA3			RWRR			RWRU			
		X1	Y1	Z1	X2	Y2	Z2	X3	Y3	Z3	X4	Y4	Z4	X5	Y5	Z5	X6	Y6	Z6	X7	Y7	Z7	X8	Y8	Z8	X9	Y9	Z9	X10	Y10	Z10	X11	Y11	Z11	X12	Y12	Z12	X13	Y13	Z13	X14	Y14	Z14	X15	Y15	Z15	X16	Y16	Z16	X17	Y17	Z17	X18	Y18	Z18	X19	Y19	Z19	X20	Y20	Z20	X21	Y21	Z21	X22	Y22	Z22	X23	Y23	Z23	X24	Y24	Z24	X25	Y25	Z25	X26	Y26	Z26	X27	Y27	Z27	X28	Y28	Z28	X29	Y29	Z29	X30	Y30	Z30	X31	Y31	Z31	X32	Y32	Z32	X33	Y33	Z33	X34	Y34	Z34	X35	Y35	Z35	X36	Y36	Z36	X37	Y37	Z37	X38	Y38	Z38	X39	Y39	Z39	X40	Y40	Z40	X41	Y41	Z41	X42	Y42	Z42	X43	Y43	Z43	X44	Y44	Z44	X45	Y45	Z45	X46	Y46	Z46	X47	Y47	Z47	X48	Y48	Z48	X49	Y49	Z49	X50	Y50	Z50	X51	Y51	Z51	X52	Y52	Z52	X53	Y53	Z53	X54	Y54	Z54	X55	Y55	Z55	

69	0.34	960.711669921875	36.20576095581067	-1933.557861328125	1063.177124023438	32.89044570922851	86.64196014404297	479.0516662597656	1449.489624023438	-1205.835083007812	429.5645446777344	1476.760620117188	-1143.0244140625	435.2780456542969	1472.97607421875	-1278.225219726562	233.4530487060547	1321.084106445312	-1211.828125	131.5006408691406	1182.919067382812	-1218.151000976562	116.7051773071289	1151.060424804688	-1238.920288085938	108.468994140625	1145.244262695312	-1189.725341796875	94.32225799560547	1090.526611328125	-1224.389038085938	77.33479309082031	1029.450561523438	-1221.84619140625	47.91496658325195	1011.734558105469	-1238.281982421875	47.26488494873047	1009.346313476563	-1187.654296875	19.2747917175293	955.7990112304689	-1216.932983398438	-9.842178344726562	863.0739746093751	-1239.037231445312	-8.784712791442871	860.4519653320314	-1187.521118164062	-24.36379814147949	802.5406494140626	-1215.7275390625	127.0195083618164	611.2564697265626	-1480.359008789062	126.0179901123047	532.5845336914064	-1468.470581054688	157.8502502441406	560.4059448242189	-1495.803955078125	182.7142944335938	324.8805236816407	-1577.08837890625	133.4159088134766	268.6209716796876	-1549.374633789062	178.8426055908203	263.113006591797	-1571.259033203125	111.5973510742188	68.91308593750009	-1473.574584960938	315.0636291503906	50.99473190307626	-1549.190673828125	238.7394866943359	26.09027099609385	-1627.771484375	107.2473373413086	607.7974853515626	-956.5142822265625	166.4189300537109	600.7952270507812	-903.188720703125	145.97705078125	565.4957275390626	-931.5111694335938	162.0942687988281	340.3737792968751	-854.0187377929688	178.83837890625	264.9477233886719	-840.4774169921875	142.2622833251953	282.8492736816407	-868.3955688476562	93.42221069335938	64.06951141357428	-966.1231689453125	285.9753723144531	47.75827789306646	-875.4939575195312	200.1282196044922	38.43566513061528	-801.4119873046875	376.6807556152344	1184.922729492188	-1214.945190429688	350.5843811035156	1038.55029296875	-1211.212768554688	289.8400573730469	1286.369262695312	-1376.97607421875	200.6106262207031	1191.86376953125	-1489.105590820312	154.4192199707031	1147.50732421875	-1504.818969726562	195.4718170166016	1145.849365234375	-1535.36865234375	215.388671875	1085.558227539062	-1624.74169921875	292.3829040527344	1068.78271484375	-1632.112060546875	270.2537536621094	1113.826782226562	-1626.491333007812	351.1101989746094	1179.813720703125	-1624.179321289062	350.1582336425781	1178.2607421875	-1546.236328125	288.5375061035156	1287.402587890625	-1062.73486328125	209.9538421630859	1194.386962890625	-949.2484741210936	200.3819274902344	1152.232543945312	-898.8985595703124	168.796875	1143.879150390625	-939.8731689453124	246.3278656005859	1111.032348632812	-795.5068969726561	255.5433197021484	1189.334350585938	-806.6937255859374	290.9873657226562	1154.90771484375	-797.9056396484374	336.9694213867188	1236.06640625	-815.1102905273436	341.7973937988281	1229.013061523438	-892.6127929687499	
70	0.345	960.7109985351562	36.20654296875012	-1933.558227539062	1063.176879882812	32.89025497436523	86.64128112792969	480.7169494628906	1445.627807617188	-1205.9638671875	431.2815856933594	1473.015258789062	-1143.180541992188	437.0249328613281	1469.183227539062	-1278.392822265625	234.6209259033203	1318.083129882812	-1212.013793945312	132.0001983642578	1180.469604492188	-1218.320556640625	117.0686187744141	1148.673583984375	-1239.093139648438	108.7803802490234	1142.9013671875	-1189.908935546875	94.34259796142578	1088.246948242188	-1224.574462890625	77.08641815185547	1027.2333984375	-1222.004028320312	47.54417419433594	1009.597778320313	-1238.397583007812	46.88602828979492	1007.20849609375	-1187.76123046875	18.69289970397949	953.7692260742189	-1217.0517578125	-10.7753849029541	860.9074707031251	-1239.202880859375	-9.719834327697754	858.2727661132814	-1187.688598632812	-25.38655853271484	800.3901977539064	-1215.9052734375	126.8783874511719	609.9241943359376	-1481.2958984375	126.1882629394531	531.1785888671876	-1469.854248046875	157.9159545898438	559.2940063476564	-1497.001586914062	183.2354888916016	324.5091247558595	-1578.121337890625	133.8220062255859	268.428680419922	-1550.25	179.2564697265625	262.7718505859376	-1572.068725585938	111.6120452880859	68.92447662353524	-1473.568603515625	315.0497436523438	50.98448181152353	-1549.196655273438	238.7285308837891	26.06532669067393	-1627.794189453125	107.0505065917969	606.0500488281251	-955.9928588867188	166.2791442871094	599.649658203125	-902.6593627929688	146.0612640380859	564.0965576171876	-930.8311157226562	162.7540283203125	340.0709228515626	-853.2471313476562	179.3302307128906	264.5575866699219	-839.9688110351562	142.7637939453125	282.6358642578126	-867.81396484375	93.43179321289062	64.0712509155274	-966.1293334960938	285.9583740234375	47.75667953491217	-875.5011596679688	200.1271209716797	38.44142532348638	-801.41064453125	377.2669677734375	1181.299194335938	-1215.009033203125	350.5289001464844	1035.025024414062	-1211.24755859375	291.0928039550781	1283.080200195312	-1377.111694335938	201.6387634277344	1188.95849609375	-1489.355346679688	155.2488250732422	1144.832153320312	-1505.175048828125	196.3156127929688	1142.981323242188	-1535.6962890625	216.1576385498047	1082.597534179688	-1624.989013671875	293.0843200683594	1065.4873046875	-1632.26806640625	271.1463317871094	1110.6279296875	-1626.670532226562	352.291015625	1176.255249023438	-1624.24658203125	351.18603515625	1174.718994140625	-1546.338012695312	289.4650268554688	1284.265747070312	-1062.884521484375	210.5474090576172	1191.585327148438	-949.4163818359374	200.7649230957031	1149.516357421875	-899.0308837890624	169.1579437255859	1141.262939453125	-940.0140380859374	246.5420227050781	1108.206665039062	-795.6245727539061	256.0713500976562	1186.4482421875	-806.8876342773436	291.3795776367188	1151.901123046875	-798.0582885742186	337.6782531738281	1232.862060546875	-815.3320922851561	342.547119140625	1225.690185546875	-892.8366088867186	
71	0.35	960.7102661132812	36.20721817016614	-1933.558715820312	1063.1767578125	32.89006042480468	86.64071655273438	482.3714904785156	1441.735961914062	-1206.095092773438	432.98876953125	1469.242065429688	-1143.339111328125	438.7615051269531	1465.364990234375	-1278.55908203125	235.7723083496094	1315.058837890625	-1212.2001953125	132.4941864013672	1177.992431640625	-1218.491333007812	117.4270935058594	1146.256713867188	-1239.26806640625	109.0857315063477	1140.52783203125	-1190.095092773438	94.36334991455078	1085.939208984375	-1224.760498046875	76.84346771240234	1024.987182617188	-1222.162475585938	47.17746734619141	1007.428100585938	-1238.515869140625	46.51046371459961	1005.039855957031	-1187.87158203125	18.12112617492676	951.7064819335939	-1217.171875	-11.70163154602051	858.7028808593751	-1239.3662109375	-10.64369201660156	856.0583496093751	-1187.85302734375	-26.38919067382812	798.2006835937501	-1216.076538085938	126.7298889160156	608.5591430664064	-1482.19873046875	126.3776016235352	529.7465820312501	-1471.195678710938	157.9814453125	558.1572875976564	-1498.171630859375	183.7513427734375	324.137176513672	-1579.141845703125	134.2272491455078	268.2368774414064	-1551.1064453125	179.6643524169922	262.4310302734376	-1572.867797851562	111.6277389526367	68.93505096435555	-1473.562377929688	315.0361938476562	50.97703552246103	-1549.203247070312	238.7174682617188	26.0393066406251	-1627.817993164062	106.8687744140625	604.3181152343751	-955.4490356445312	166.1652221679688	598.5138549804688	-902.1273193359375	146.1562042236328	562.7106323242189	-930.1355590820312	163.4091644287109	339.7707214355469	-852.4857788085938	179.8078155517578	264.1730346679688	-839.453857421875	143.2609100341797	282.4283142089844	-867.2405395507812	93.44289398193359	64.0747909545899	-966.1354370117188	285.9429321289062	47.7549552917481	-875.5081787109375	200.1256561279297	38.44686508178716	-801.4083862304688	377.8406372070312	1177.659057617188	-1215.072875976562	350.4710998535156	1031.483520507812	-1211.283935546875	292.3317260742188	1279.7705078125	-1377.24609375	202.6550445556641	1186.03125	-1489.60595703125	156.0717315673828	1142.132446289062	-1505.530517578125	197.1516418457031	1140.091918945312	-1536.0263671875	216.916259765625	1079.626098632812	-1625.245239257812	293.7754821777344	1062.188720703125	-1632.43505859375	272.0241088867188	1107.423095703125	-1626.85791015625	353.4485778808594	1172.697265625	-1624.3232421875	352.1943359375	1171.176391601562	-1546.450439453125	290.3809509277344	1281.107177734375	-1063.031982421875	211.1355438232422	1188.756469726562	-949.5838623046874	201.1403198242188	1146.772094726562	-899.1632690429686	169.5134124755859	1138.617919921875	-940.1559448242186	246.7462921142578	1105.357421875	-795.7430419921874	256.5807800292969	1183.536376953125	-807.0826416015624	291.7577514648438	1148.873901367188	-798.2091064453124	338.3669128417969	1229.639282226562	-815.5505981445311	343.2759704589844	1222.350952148438	-893.0558471679686	
72	0.355	960.7095947265625	36.20776367187512	-1933.559204101562	1063.176879882812	32.88990783691406	86.64032745361328	484.0139465332031	1437.816772460938	-1206.228515625	434.6846618652344	1465.443725585938	-1143.49951171875	440.4860229492188	1461.523193359375	-1278.7236328125	236.9066772460938	1312.012573242188	-1212.38720703125	132.9827728271484	1175.488037109375	-1218.663208007812	117.7805404663086	1143.810668945312	-1239.445190429688	109.3854141235352	1138.125	-1190.283447265625	94.38526916503906	1083.604248046875	-1224.947143554688	76.60614013671875	1022.712585449219	-1222.321044921875	46.81527709960938	1005.225402832031	-1238.635986328125	46.13803100585938	1002.840148925781	-1187.984252929688	17.56027030944824	949.6102294921876	-1217.29296875	-12.61975574493408	856.4621582031251	-1239.525634765625	-11.55557537078857	853.8104248046876	-1188.013061523438	-27.37115478515625	795.9739990234376	-1216.240112304688	126.5709762573242	607.1547241210939	-1483.063842773438	126.5862808227539	528.2824707031251	-1472.487426757812	158.0458984375	556.9897460937501	-1499.308715820312	184.2620239257812	323.7651672363282	-1580.149780273438	134.6312713623047	268.0462951660157	-1551.944091796875	180.0661468505859	262.0910644531251	-1573.656494140625	111.6444702148438	68.9447555541993	-1473.555786132812	315.0238647460938	50.97268676757822	-1549.210083007812	238.7063293457031	26.01219749450694	-1627.842651367188	106.7005920410156	602.6011962890626	-954.880126953125	166.0757446289062	597.3878784179688	-901.58984375	146.2612762451172	561.3378906250001	-929.4219970703125	164.0602569580078	339.4726867675782	-851.7334594726562	180.2718963623047	263.7934875488282	-838.931640625	143.7546234130859	282.2259216308594	-866.6732177734375	93.45578765869141	64.07993316650396	-966.1415405273438	285.9295043945312	47.75280380249029	-875.5152587890625	200.1239013671875	38.452075958252	-801.4051513671875	378.4019470214844	1174.004272460938	-1215.136596679688	350.4112243652344	1027.927124023438	-1211.322387695312	293.5557250976562	1276.442260742188	-1377.378784179688	203.6588134765625	1183.0830078125	-1489.857055664062	156.8874359130859	1139.40869140625	-1505.884399414062	197.982666015625	1137.181030273438	-1536.354858398438	217.6636810302734	1076.644897460938	-1625.510131835938	294.4558410644531	1058.888061523438	-1632.612426757812	272.8862609863281	1104.213012695312	-1627.052490234375	354.5818481445312	1169.1416015625	-1624.409057617188	353.1831665039062	1167.634155273438	-1546.571899414062	291.2863464355469	1277.928100585938	-1063.178344726562	211.7172698974609	1185.901489257812	-949.7504882812499	201.5085754394531	1144.000854492188	-899.2954711914061	169.8633575439453	1135.945678710938	-940.2984008789061	246.9412384033203	1102.485717773438	-795.8619995117186	257.072021484375	1180.60009765625	-807.2778930664061	292.1224060058594	1145.827270507812	-798.3576049804686	339.0363464355469	1226.399291992188	-815.7652587890624	343.9842834472656	1218.997192382812	-893.2697753906249	
